<?xml version="1.0" encoding="UTF-8" standalone="no"?>
<!-- Created with Inkscape (http://www.inkscape.org/) -->

<svg
   xmlns:dc="http://purl.org/dc/elements/1.1/"
   xmlns:cc="http://creativecommons.org/ns#"
   xmlns:rdf="http://www.w3.org/1999/02/22-rdf-syntax-ns#"
   xmlns:svg="http://www.w3.org/2000/svg"
   xmlns="http://www.w3.org/2000/svg"
   xmlns:sodipodi="http://sodipodi.sourceforge.net/DTD/sodipodi-0.dtd"
   xmlns:inkscape="http://www.inkscape.org/namespaces/inkscape"
   width="178.63766"
   height="27.184"
   viewBox="0 0 47.264549 7.1924331"
   version="1.1"
   id="svg5009"
   inkscape:version="0.92.0 r15299"
   sodipodi:docname="yokogawa.svg">
  <defs
     id="defs5003" />
  <sodipodi:namedview
     id="base"
     pagecolor="#ffffff"
     bordercolor="#666666"
     borderopacity="1.0"
     inkscape:pageopacity="0.0"
     inkscape:pageshadow="2"
     inkscape:zoom="5.0496048"
     inkscape:cx="88.818834"
     inkscape:cy="13.092"
     inkscape:document-units="mm"
     inkscape:current-layer="layer1"
     showgrid="false"
     fit-margin-top="0"
     fit-margin-left="0"
     fit-margin-right="0"
     fit-margin-bottom="0"
     units="px"
     inkscape:window-width="1280"
     inkscape:window-height="744"
     inkscape:window-x="-4"
     inkscape:window-y="-4"
     inkscape:window-maximized="1" />
  <metadata
     id="metadata5006">
    <rdf:RDF>
      <cc:Work
         rdf:about="">
        <dc:format>image/svg+xml</dc:format>
        <dc:type
           rdf:resource="http://purl.org/dc/dcmitype/StillImage" />
        <dc:title></dc:title>
      </cc:Work>
    </rdf:RDF>
  </metadata>
  <g
     inkscape:label="Layer 1"
     inkscape:groupmode="layer"
     id="layer1"
     transform="translate(-38.488112,-148.88459)">
    <g
       id="g5069"
       transform="translate(0.13229141,-0.13228832)">
      <path
         inkscape:connector-curvature="0"
         id="path158"
         style="fill:#ffee01;fill-opacity:1;fill-rule:nonzero;stroke:none;stroke-width:0.35277778"
         d="m 82.079539,156.07702 c 0.781403,-1.52506 1.9177,-2.69416 3.408539,-3.51931 0,0.004 -3.405717,-3.40466 -3.405717,-3.40854 -1.704622,1.70921 -2.71145,2.70475 -3.407833,3.40854 -7.06e-4,0 0.0067,0.004 0,0 1.44145,0.78564 2.561519,1.92581 3.405011,3.51931" />
      <path
         inkscape:connector-curvature="0"
         id="path162"
         style="fill:#231f20;fill-opacity:1;fill-rule:nonzero;stroke:none;stroke-width:0.35277778"
         d="m 41.366779,155.11065 h -0.771878 v -2.07962 l -2.106789,-2.98662 h 0.976842 l 1.510594,2.24014 1.521178,-2.23767 h 0.966611 l -2.096558,2.96686 z" />
      <path
         inkscape:connector-curvature="0"
         id="path166"
         style="fill:#231f20;fill-opacity:1;fill-rule:nonzero;stroke:none;stroke-width:0.35277778"
         d="m 45.257662,149.89272 c -0.382411,0 -2.481086,0.16933 -2.481086,2.72344 0,2.40665 2.101497,2.62573 2.504369,2.6289 0.423334,0.003 2.499784,-0.24377 2.499784,-2.6931 0,-2.32234 -1.868664,-2.65924 -2.523067,-2.65924 m 0.05151,4.68383 c -0.749653,0 -1.749778,-0.43674 -1.749778,-2.01436 0,-1.44075 0.952147,-2.0133 1.7018,-2.0133 0.685447,0 1.732844,0.44767 1.732844,2.07927 0,1.60267 -1.1557,1.94839 -1.684866,1.94839" />
      <path
         inkscape:connector-curvature="0"
         id="path170"
         style="fill:#231f20;fill-opacity:1;fill-rule:nonzero;stroke:none;stroke-width:0.35277778"
         d="m 48.932169,155.10843 h -0.76835 v -5.06695 l 0.815975,0.002 v 2.39748 l 2.387953,-2.39677 h 1.048808 l -2.107142,2.11384 2.2733,2.94817 -0.98813,0.004 -1.876778,-2.48215 -0.785636,0.74331 z" />
      <path
         inkscape:connector-curvature="0"
         id="path174"
         style="fill:#231f20;fill-opacity:1;fill-rule:nonzero;stroke:none;stroke-width:0.35277778"
         d="m 54.412616,149.8798 c -0.731661,0.0251 -2.551289,0.39864 -2.551289,2.64195 0,2.46874 1.969206,2.71816 2.574572,2.71498 0.677334,-0.004 2.448984,-0.4766 2.457803,-2.69628 0.01023,-2.65959 -2.510719,-2.6603 -2.481086,-2.66065 m -0.0042,4.69089 c -0.733073,0 -1.740959,-0.39229 -1.740959,-2.01084 0,-1.54552 1.01212,-2.01295 1.723673,-2.01295 0.893233,0 1.690863,0.66111 1.690863,1.97979 0,1.70357 -1.081616,2.044 -1.673577,2.044" />
      <path
         inkscape:connector-curvature="0"
         id="path178"
         style="fill:#231f20;fill-opacity:1;fill-rule:nonzero;stroke:none;stroke-width:0.35277778"
         d="m 59.749103,152.44277 2.196042,0.002 -0.0071,2.63878 h -0.608542 l -0.08819,-0.4886 c -0.475192,0.4639 -0.950031,0.62512 -1.716969,0.62301 -1.107017,-0.002 -2.317045,-0.88089 -2.317045,-2.68394 0,-1.22555 0.777875,-2.62643 2.403828,-2.61937 0.861483,0 2.060928,0.28716 2.264128,1.61995 l -0.795867,0.003 c -0.100542,-0.3355 -0.386292,-0.99166 -1.401939,-0.99166 -0.831144,0 -1.653117,0.50623 -1.653117,2.04787 0,1.45874 0.913695,1.99884 1.613253,1.99884 0.684036,0 1.330325,-0.23283 1.591381,-1.45133 h -1.476375 l -0.0035,-0.69885" />
      <path
         inkscape:connector-curvature="0"
         id="path182"
         style="fill:#231f20;fill-opacity:1;fill-rule:nonzero;stroke:none;stroke-width:0.35277778"
         d="m 64.698319,150.05171 -1.039636,0.002 -1.620661,5.05248 h 0.830439 l 0.430389,-1.40229 1.980141,-0.002 0.557742,1.39241 0.850194,-0.008 z m -1.204383,2.99861 0.68968,-2.27118 0.148167,0.4071 0.690386,1.86408 z" />
      <path
         inkscape:connector-curvature="0"
         id="path186"
         style="fill:#231f20;fill-opacity:1;fill-rule:nonzero;stroke:none;stroke-width:0.35277778"
         d="m 65.753239,150.04448 h 0.865364 c 0.680155,2.7499 0.814564,3.23286 0.964494,3.77014 0.119239,-0.50624 0.366184,-1.16946 1.032228,-3.77014 h 0.783519 c 0.790223,2.80352 0.90805,3.23603 1.080206,3.80047 0.119944,-0.46954 0.284692,-1.0287 0.959908,-3.80047 h 0.81915 l -1.355725,5.05178 -0.811036,0.01 c -0.657225,-2.24261 -0.738011,-2.5139 -1.07068,-3.695 -0.273756,0.94121 -0.327378,1.18498 -1.030817,3.69041 h -0.833614 l -1.402997,-5.05707" />
      <path
         inkscape:connector-curvature="0"
         id="path190"
         style="fill:#231f20;fill-opacity:1;fill-rule:nonzero;stroke:none;stroke-width:0.35277778"
         d="m 74.23504,150.03672 h -0.997656 l -1.789994,5.06166 h 0.799747 l 0.460375,-1.35361 2.014009,0.002 0.490713,1.34902 0.836437,-0.002 z m -1.287639,3.03777 0.779286,-2.24261 -7.05e-4,-0.0102 0.785283,2.2546 z" />
    </g>
  </g>
</svg>
